<svg width="72" height="76" viewBox="0 0 72 76" fill="none" xmlns="http://www.w3.org/2000/svg">
<path d="M27.9199 0C27.5168 0 27.1302 0.160142 26.8451 0.445198C26.5601 0.730253 26.3999 1.11687 26.3999 1.52V4.56C26.3999 4.96313 26.5601 5.34975 26.8451 5.6348C27.1302 5.91986 27.5168 6.08 27.9199 6.08H30.1999V10.1042C13.7566 11.9966 0.939941 25.9988 0.939941 42.94C0.939941 61.1671 15.7729 76 33.9999 76C52.227 76 67.0599 61.1671 67.0599 42.94C67.0652 36.7014 65.2937 30.5903 61.9527 25.3217L65.1736 22.7141L66.6085 24.4864C66.734 24.6416 66.8889 24.7706 67.0643 24.866C67.2397 24.9613 67.4322 25.0212 67.6307 25.0421C67.8292 25.0631 68.0299 25.0447 68.2214 24.9881C68.4128 24.9315 68.5912 24.8377 68.7464 24.7122L71.11 22.7985C71.4229 22.5446 71.6222 22.1769 71.6641 21.7762C71.706 21.3754 71.587 20.9745 71.3334 20.6614L63.6817 11.21C63.5562 11.0548 63.4013 10.9258 63.2259 10.8305C63.0505 10.7351 62.8581 10.6753 62.6595 10.6543C62.461 10.6334 62.2603 10.6517 62.0689 10.7083C61.8775 10.7649 61.699 10.8587 61.5439 10.9843L59.1803 12.898C58.8674 13.1518 58.6681 13.5195 58.6262 13.9203C58.5843 14.321 58.7032 14.722 58.9568 15.0351L60.3925 16.8074L57.1853 19.402C52.0651 14.3572 45.311 10.9706 37.7999 10.1057V6.08H40.0799C40.4831 6.08 40.8697 5.91986 41.1547 5.6348C41.4398 5.34975 41.5999 4.96313 41.5999 4.56V1.52C41.5999 1.11687 41.4398 0.730253 41.1547 0.445198C40.8697 0.160142 40.4831 0 40.0799 0L27.9199 0ZM33.9999 15.2C49.3519 15.2 61.7399 27.588 61.7399 42.94C61.7399 58.292 49.3519 70.68 33.9999 70.68C18.6479 70.68 6.25994 58.292 6.25994 42.94C6.25994 27.588 18.6479 15.2 33.9999 15.2ZM34.0015 20.8567L33.9999 42.94L51.6578 56.1997C54.1209 52.9196 55.6217 49.0182 55.9919 44.933C56.3621 40.8477 55.5871 36.7401 53.7539 33.0706C51.9206 29.4013 49.1016 26.315 45.6128 24.1578C42.124 22.0006 38.1033 20.8578 34.0015 20.8574V20.8567Z" fill="url(#paint0_linear_21_281)"/>
<defs>
<linearGradient id="paint0_linear_21_281" x1="36.3061" y1="-31.2941" x2="36.3061" y2="76" gradientUnits="userSpaceOnUse">
<stop stop-color="#FFB906"/>
<stop offset="1" stop-color="#FF7E06"/>
</linearGradient>
</defs>
</svg>
