<?xml version="1.0" encoding="utf-8"?>
<!-- Svg Vector Icons : http://www.onlinewebfonts.com/icon -->
<!DOCTYPE svg PUBLIC "-//W3C//DTD SVG 1.1//EN" "http://www.w3.org/Graphics/SVG/1.1/DTD/svg11.dtd">
<svg version="1.1" xmlns="http://www.w3.org/2000/svg" xmlns:xlink="http://www.w3.org/1999/xlink" x="0px" y="0px" viewBox="0 0 1000 1000" enable-background="new 0 0 1000 1000" xml:space="preserve">
<metadata> Svg Vector Icons : http://www.onlinewebfonts.com/icon </metadata>
<g><g><path d="M909.7,956.9c-44.2,44.2-115.8,44.2-159.9,0L500,671.3L250.3,956.8c-44.2,44.2-115.8,44.2-159.9,0c-44.2-44.2-44.2-115.8,0-159.9L350.2,500l-260-297c-44.2-44.2-44.2-115.7,0-159.9S206-1,250.2,43.1L500,328.7L749.8,43.1C794-1,865.6-1,909.7,43.1c44.2,44.2,44.2,115.8,0,159.9L649.9,500l259.9,296.8C953.9,841.1,953.9,912.7,909.7,956.9L909.7,956.9z"/></g></g>
</svg>