<svg width="37" height="37" viewBox="0 0 37 37" fill="none" xmlns="http://www.w3.org/2000/svg">
<path d="M35.2386 22.6342L32.8908 21.1415C33.0475 20.2847 33.1337 19.4025 33.1337 18.5006C33.1337 17.5987 33.0481 16.7176 32.8914 15.8609L35.2386 14.3681C35.7659 14.0322 35.9931 13.261 35.7404 12.6546L34.8253 10.4456C34.5738 9.83795 33.8679 9.45234 33.258 9.5882L30.5437 10.1918C29.5342 8.73219 28.2691 7.46715 26.8096 6.45766L27.4137 3.74278C27.549 3.13286 27.1639 2.42697 26.5569 2.17606L24.3473 1.26031C23.7397 1.00709 22.9679 1.23372 22.6326 1.76212L21.1399 4.10931C20.2691 3.94877 19.3856 3.8675 18.5002 3.8665C17.5977 3.8665 16.7161 3.95264 15.8599 4.10873L14.3671 1.76155C14.0313 1.23314 13.2606 1.00651 12.653 1.25858L10.4446 2.17433C9.83696 2.42523 9.45077 3.1317 9.58721 3.7422L10.1908 6.4565C8.73126 7.46564 7.46638 8.73052 6.45724 10.19L3.74237 9.58647C3.13244 9.45003 2.42655 9.83622 2.17507 10.4427L1.2599 12.6517C1.00783 13.2593 1.23446 14.0311 1.76171 14.3664L4.10947 15.8591C3.94944 16.7301 3.86837 17.6138 3.86724 18.4994C3.86724 19.4019 3.95338 20.2829 4.10947 21.1391L1.76171 22.6319C1.23388 22.9677 1.00783 23.739 1.2599 24.3472L2.17507 26.5562C2.42713 27.1626 3.13244 27.5494 3.74237 27.4124L6.45724 26.8082C7.46668 28.2677 8.73151 29.5327 10.1908 30.5423L9.58663 33.2572C9.45019 33.8671 9.83696 34.573 10.4434 34.8239L12.6524 35.7397C13.2606 35.9906 14.0313 35.7651 14.3671 35.2373L15.8599 32.8901C16.7166 33.0468 17.5983 33.1323 18.5002 33.1323C19.402 33.1323 20.2825 33.0468 21.1399 32.8901L22.6326 35.2373C22.9679 35.7651 23.7397 35.9906 24.3467 35.7397L26.5552 34.8251C27.1639 34.573 27.549 33.8671 27.4125 33.2572L26.809 30.5423C28.2687 29.533 29.5337 28.2679 30.5431 26.8082L33.2574 27.4124C33.8673 27.5488 34.5732 27.162 34.8247 26.5562L35.7398 24.3472C35.9931 23.7401 35.7659 22.9689 35.2386 22.6342V22.6342ZM14.7672 29.2433L13.5728 28.749C11.2477 27.6274 9.37171 25.7506 8.25116 23.425L7.7586 22.2364C7.33722 21.0359 7.12087 19.7729 7.11861 18.5006C7.11861 17.1865 7.35276 15.9302 7.76207 14.7555L8.24885 13.5802C9.36942 11.2532 11.2461 9.37508 13.5722 8.25273L14.7678 7.75728C15.9671 7.33656 17.2286 7.1206 18.4996 7.11845C19.8061 7.11845 21.0566 7.3497 22.2256 7.75555L23.4327 8.25562C25.7516 9.37541 27.6234 11.2467 28.744 13.5651L29.2464 14.7792C29.651 15.947 29.8817 17.1952 29.8817 18.5006C29.8817 19.806 29.6516 21.0547 29.2464 22.2225L28.744 23.4366C27.6236 25.7552 25.7517 27.6265 23.4327 28.7461L22.2256 29.2462C21.0279 29.6654 19.7685 29.8807 18.4996 29.8833C17.2285 29.8798 15.9669 29.6635 14.7672 29.2433" fill="url(#paint0_linear_21_92)"/>
<path d="M27.1719 18.5006C27.1719 13.7114 23.2898 9.8287 18.5 9.8287C13.7114 9.8287 9.82812 13.7114 9.82812 18.5006C9.82812 23.2898 13.7114 27.1725 18.5 27.1725C23.2898 27.1725 27.1719 23.2898 27.1719 18.5006ZM14.1641 18.5006C14.1641 17.3506 14.6209 16.2478 15.434 15.4346C16.2472 14.6215 17.35 14.1646 18.5 14.1646C19.65 14.1646 20.7528 14.6215 21.566 15.4346C22.3791 16.2478 22.8359 17.3506 22.8359 18.5006C22.8359 19.6505 22.3791 20.7534 21.566 21.5666C20.7528 22.3797 19.65 22.8365 18.5 22.8365C17.35 22.8365 16.2472 22.3797 15.434 21.5666C14.6209 20.7534 14.1641 19.6505 14.1641 18.5006Z" fill="#C4C4C4"/>
<defs>
<linearGradient id="paint0_linear_21_92" x1="18.5002" y1="-13.1272" x2="18.5002" y2="35.8422" gradientUnits="userSpaceOnUse">
<stop stop-color="#FFB906"/>
<stop offset="1" stop-color="#FF7E06"/>
</linearGradient>
</defs>
</svg>
