<svg width="27" height="28" viewBox="0 0 27 28" fill="none" xmlns="http://www.w3.org/2000/svg">
<path d="M23.7273 0.90918H3.36368C1.76368 0.90918 0.45459 2.21827 0.45459 3.81827V24.1819C0.45459 25.7834 1.76368 27.091 3.36368 27.091H13.5455V16.9092H10.6364V13.3092H13.5455V10.3274C13.5455 7.17973 15.3084 4.96882 19.0233 4.96882L21.6459 4.97173V8.76082H19.9048C18.459 8.76082 17.9091 9.84591 17.9091 10.8525V13.3106H21.6444L20.8182 16.9092H17.9091V27.091H23.7273C25.3273 27.091 26.6364 25.7834 26.6364 24.1819V3.81827C26.6364 2.21827 25.3273 0.90918 23.7273 0.90918Z" fill="url(#paint0_linear_204_154)"/>
<defs>
<linearGradient id="paint0_linear_204_154" x1="13.5455" y1="-9.87157" x2="13.5455" y2="27.091" gradientUnits="userSpaceOnUse">
<stop stop-color="#FFB906"/>
<stop offset="1" stop-color="#FF7E06"/>
</linearGradient>
</defs>
</svg>
