<svg id="Слой_1" data-name="Слой 1" xmlns="http://www.w3.org/2000/svg" xmlns:xlink="http://www.w3.org/1999/xlink" viewBox="0 0 73.33 73.34"><defs><style>.cls-1{fill:url(#Безымянный_градиент);}.cls-2{fill:url(#Безымянный_градиент-2);}.cls-3{fill:url(#Безымянный_градиент-3);}.cls-4{fill:url(#Безымянный_градиент-4);}</style><linearGradient id="Безымянный_градиент" x1="37" y1="105.87" x2="37" y2="2.33" gradientTransform="matrix(1, 0, 0, -1, 0, 76)" gradientUnits="userSpaceOnUse"><stop offset="0" stop-color="#ffb906"/><stop offset="1" stop-color="#ff7e06"/></linearGradient><linearGradient id="Безымянный_градиент-2" x1="56.47" y1="47.6" x2="56.47" y2="4.01" xlink:href="#Безымянный_градиент"/><linearGradient id="Безымянный_градиент-3" x1="51.91" y1="30.71" x2="51.91" y2="13.27" xlink:href="#Безымянный_градиент"/><linearGradient id="Безымянный_градиент-4" x1="61.4" y1="30.67" x2="61.4" y2="13.29" xlink:href="#Безымянный_градиент"/></defs><path class="cls-1" d="M37,.33A36.67,36.67,0,0,1,73.67,37c0,1,0,1.92-.11,2.86A24.06,24.06,0,0,0,68.15,36,31.17,31.17,0,1,0,9.77,52.17l.55,1L6.24,67.77l14.62-4.08,1,.55A31,31,0,0,0,36,68.15a24.2,24.2,0,0,0,3.85,5.41,36.59,36.59,0,0,1-19.68-4l-14,3.91a4.51,4.51,0,0,1-2.39,0A4.56,4.56,0,0,1,.49,70.25a4.55,4.55,0,0,1,0-2.4l3.91-14A36.68,36.68,0,0,1,37,.33Z" transform="translate(-0.33 -0.33)"/><path class="cls-2" d="M71.91,56.55A15.44,15.44,0,1,0,56.47,72,15.45,15.45,0,0,0,71.91,56.55Zm-28.56,0a13.13,13.13,0,1,1,3.84,9.28,13.12,13.12,0,0,1-3.84-9.28Z" transform="translate(-0.33 -0.33)"/><path class="cls-3" d="M49.19,51.53a3.56,3.56,0,0,1,2.7-1.15,3.44,3.44,0,0,1,3.33,2.56,4.07,4.07,0,0,1-1,4A12.17,12.17,0,0,1,53,58l-.06,0a11.65,11.65,0,0,0-1.16,1,3.45,3.45,0,0,0-.9,1.37h3.29a1.16,1.16,0,0,1,0,2.32H49.58a1.16,1.16,0,0,1-1.16-1.16,5.62,5.62,0,0,1,1.77-4.17,13.62,13.62,0,0,1,1.37-1.17h0a11.17,11.17,0,0,0,1-.88A1.77,1.77,0,0,0,53,53.61a1.13,1.13,0,0,0-1.11-.92,1.25,1.25,0,0,0-1,.39,1.16,1.16,0,0,0-.23.36h0a1.18,1.18,0,0,1-.58.68,1.17,1.17,0,0,1-.88.07,1.18,1.18,0,0,1-.68-.58,1.17,1.17,0,0,1-.07-.88l.06-.15a3.58,3.58,0,0,1,.66-1Z" transform="translate(-0.33 -0.33)"/><path class="cls-4" d="M59.09,50.4a1.15,1.15,0,0,1,.82.34,1.19,1.19,0,0,1,.34.82V55.8h2.31V51.56a1.16,1.16,0,0,1,2.32,0v10a1.17,1.17,0,0,1-.34.82,1.16,1.16,0,0,1-1.64,0,1.17,1.17,0,0,1-.34-.82V58.12H59.09A1.16,1.16,0,0,1,57.93,57v-5.4a1.16,1.16,0,0,1,1.16-1.16Z" transform="translate(-0.33 -0.33)"/></svg>