<svg width="17" height="17" viewBox="0 0 17 17" fill="none" xmlns="http://www.w3.org/2000/svg">
<path d="M14.4374 16.2188H14.3364C2.66924 15.5478 1.01268 5.70344 0.781118 2.69906C0.744927 2.22807 0.897305 1.76199 1.20474 1.40334C1.51217 1.04469 1.94947 0.822839 2.42046 0.786594C2.46757 0.783032 2.51487 0.781251 2.56237 0.781251H5.69143C5.92926 0.78102 6.16168 0.852209 6.35859 0.985597C6.55549 1.11898 6.70781 1.30842 6.79581 1.52938L7.69831 3.75C7.7852 3.96586 7.80677 4.20248 7.76032 4.43049C7.71387 4.6585 7.60146 4.86784 7.43706 5.0325L6.17237 6.30906C6.36912 7.43204 6.90647 8.46734 7.71157 9.27456C8.51666 10.0818 9.55054 10.6219 10.673 10.8216L11.9614 9.545C12.1286 9.38241 12.3399 9.27262 12.569 9.22933C12.7981 9.18604 13.0349 9.21116 13.2499 9.30156L15.4883 10.1981C15.7059 10.2889 15.8916 10.4424 16.0217 10.6391C16.1517 10.8358 16.2203 11.0667 16.2186 11.3025V14.4375C16.2186 14.9099 16.031 15.363 15.6969 15.697C15.3629 16.0311 14.9098 16.2188 14.4374 16.2188ZM2.56237 1.96875C2.4844 1.96852 2.40714 1.98364 2.33501 2.01326C2.26289 2.04289 2.1973 2.08643 2.142 2.1414C2.0867 2.19637 2.04277 2.26169 2.01271 2.33364C1.98266 2.40558 1.96707 2.48275 1.96684 2.56072C1.96684 2.57734 1.96743 2.59377 1.96862 2.61C2.24174 6.125 3.99331 14.4375 14.4017 15.0313C14.5589 15.0407 14.7134 14.9873 14.8312 14.8828C14.949 14.7784 15.0205 14.6315 15.0299 14.4743L15.0311 14.4375V11.3025L12.7927 10.4059L11.0886 12.0981L10.8036 12.0625C5.63799 11.4153 4.93737 6.24969 4.93737 6.19625L4.90174 5.91125L6.58799 4.20719L5.69737 1.96875H2.56237Z" fill="url(#paint0_linear_204_147)"/>
<defs>
<linearGradient id="paint0_linear_204_147" x1="8.49726" y1="-5.57537" x2="8.49726" y2="16.2188" gradientUnits="userSpaceOnUse">
<stop stop-color="#FFB906"/>
<stop offset="1" stop-color="#FF7E06"/>
</linearGradient>
</defs>
</svg>
