<svg width="15" height="15" viewBox="0 0 15 15" fill="none" xmlns="http://www.w3.org/2000/svg">
<path d="M0 7.51464C0 6.15485 0.336695 4.89753 1.01008 3.74268C1.68347 2.58783 2.59597 1.67534 3.74756 1.0052C4.89915 0.335068 6.15159 0 7.50488 0C8.51984 0 9.48927 0.198439 10.4131 0.595316C11.337 0.992193 12.134 1.5257 12.8042 2.19584C13.4743 2.86597 14.0078 3.66461 14.4047 4.59174C14.8016 5.51887 15 6.49317 15 7.51464C15 8.5296 14.8016 9.50065 14.4047 10.4278C14.0078 11.3549 13.4743 12.1519 12.8042 12.8188C12.134 13.4857 11.337 14.0159 10.4131 14.4096C9.48927 14.8032 8.51984 15 7.50488 15C6.48341 15 5.50911 14.8016 4.58198 14.4047C3.65485 14.0078 2.85621 13.4743 2.18608 12.8042C1.51594 12.134 0.98406 11.3386 0.590436 10.418C0.196812 9.4974 0 8.5296 0 7.51464ZM1.64932 7.51464C1.64932 9.09564 2.22511 10.4684 3.37671 11.6331C4.5283 12.7846 5.90436 13.3604 7.50488 13.3604C8.55888 13.3604 9.53481 13.0986 10.4327 12.5748C11.3305 12.0511 12.0429 11.3403 12.5699 10.4424C13.0969 9.54457 13.3604 8.56864 13.3604 7.51464C13.3604 6.46064 13.0969 5.48308 12.5699 4.58198C12.0429 3.68087 11.3305 2.96845 10.4327 2.4447C9.53481 1.92095 8.55888 1.65908 7.50488 1.65908C6.45088 1.65908 5.47495 1.92095 4.5771 2.4447C3.67925 2.96845 2.96682 3.68087 2.43982 4.58198C1.91282 5.48308 1.64932 6.46064 1.64932 7.51464ZM6.92908 7.51464V3.07417C6.92908 2.91802 6.98276 2.78627 7.09011 2.67892C7.19746 2.57157 7.32921 2.51789 7.48536 2.51789C7.64151 2.51789 7.77326 2.57157 7.88061 2.67892C7.98796 2.78627 8.04164 2.91802 8.04164 3.07417V7.34873L9.47625 9.90566C9.55433 10.0488 9.57222 10.1936 9.52993 10.3399C9.48764 10.4863 9.40143 10.5986 9.27131 10.6766C9.19974 10.7157 9.10865 10.7352 8.99805 10.7352C8.77684 10.7352 8.61418 10.6441 8.51009 10.4619L7.04619 7.86597C6.96812 7.76838 6.92908 7.65127 6.92908 7.51464Z" fill="url(#paint0_linear_204_152)"/>
<defs>
<linearGradient id="paint0_linear_204_152" x1="7.5" y1="-6.17647" x2="7.5" y2="15" gradientUnits="userSpaceOnUse">
<stop stop-color="#FFB906"/>
<stop offset="1" stop-color="#FF7E06"/>
</linearGradient>
</defs>
</svg>
