<svg width="28" height="28" viewBox="0 0 28 28" fill="none" xmlns="http://www.w3.org/2000/svg">
<path d="M14.0911 0.666992C17.7138 0.666992 18.1658 0.680325 19.5871 0.746992C21.0071 0.813659 21.9738 1.03633 22.8245 1.36699C23.7045 1.70566 24.4458 2.16433 25.1871 2.90433C25.8651 3.57085 26.3898 4.37711 26.7245 5.26699C27.0538 6.11633 27.2778 7.08433 27.3445 8.50433C27.4071 9.92566 27.4245 10.3777 27.4245 14.0003C27.4245 17.623 27.4111 18.075 27.3445 19.4963C27.2778 20.9163 27.0538 21.883 26.7245 22.7337C26.3907 23.624 25.866 24.4305 25.1871 25.0963C24.5204 25.7741 23.7142 26.2987 22.8245 26.6337C21.9751 26.963 21.0071 27.187 19.5871 27.2537C18.1658 27.3163 17.7138 27.3337 14.0911 27.3337C10.4685 27.3337 10.0165 27.3203 8.59515 27.2537C7.17515 27.187 6.20848 26.963 5.35781 26.6337C4.46758 26.2996 3.66118 25.7749 2.99515 25.0963C2.31702 24.4299 1.79239 23.6236 1.45781 22.7337C1.12715 21.8843 0.904479 20.9163 0.837812 19.4963C0.775146 18.075 0.757812 17.623 0.757812 14.0003C0.757812 10.3777 0.771146 9.92566 0.837812 8.50433C0.904479 7.08299 1.12715 6.11766 1.45781 5.26699C1.79146 4.37656 2.31622 3.57009 2.99515 2.90433C3.66137 2.22597 4.46772 1.7013 5.35781 1.36699C6.20848 1.03633 7.17381 0.813659 8.59515 0.746992C10.0165 0.684325 10.4685 0.666992 14.0911 0.666992ZM14.0911 7.33366C12.323 7.33366 10.6273 8.03604 9.3771 9.28628C8.12686 10.5365 7.42448 12.2322 7.42448 14.0003C7.42448 15.7684 8.12686 17.4641 9.3771 18.7144C10.6273 19.9646 12.323 20.667 14.0911 20.667C15.8593 20.667 17.5549 19.9646 18.8052 18.7144C20.0554 17.4641 20.7578 15.7684 20.7578 14.0003C20.7578 12.2322 20.0554 10.5365 18.8052 9.28628C17.5549 8.03604 15.8593 7.33366 14.0911 7.33366ZM22.7578 7.00033C22.7578 6.5583 22.5822 6.13438 22.2697 5.82181C21.9571 5.50925 21.5332 5.33366 21.0911 5.33366C20.6491 5.33366 20.2252 5.50925 19.9126 5.82181C19.6001 6.13438 19.4245 6.5583 19.4245 7.00033C19.4245 7.44235 19.6001 7.86628 19.9126 8.17884C20.2252 8.4914 20.6491 8.66699 21.0911 8.66699C21.5332 8.66699 21.9571 8.4914 22.2697 8.17884C22.5822 7.86628 22.7578 7.44235 22.7578 7.00033ZM14.0911 10.0003C15.152 10.0003 16.1694 10.4218 16.9196 11.1719C17.6697 11.922 18.0911 12.9395 18.0911 14.0003C18.0911 15.0612 17.6697 16.0786 16.9196 16.8288C16.1694 17.5789 15.152 18.0003 14.0911 18.0003C13.0303 18.0003 12.0129 17.5789 11.2627 16.8288C10.5126 16.0786 10.0911 15.0612 10.0911 14.0003C10.0911 12.9395 10.5126 11.922 11.2627 11.1719C12.0129 10.4218 13.0303 10.0003 14.0911 10.0003Z" fill="url(#paint0_linear_204_156)"/>
<defs>
<linearGradient id="paint0_linear_204_156" x1="14.0911" y1="-10.3134" x2="14.0911" y2="27.3337" gradientUnits="userSpaceOnUse">
<stop stop-color="#FFB906"/>
<stop offset="1" stop-color="#FF7E06"/>
</linearGradient>
</defs>
</svg>
