<svg width="28" height="12" viewBox="0 0 28 12" fill="none" xmlns="http://www.w3.org/2000/svg">
<path d="M19.3332 3.33332C19.3332 1.86666 20.5332 0.666656 21.9998 0.666656C23.4665 0.666656 24.6665 1.86666 24.6665 3.33332C24.6665 4.79999 23.4665 5.99999 21.9998 5.99999C20.5332 5.99999 19.3332 4.79999 19.3332 3.33332ZM25.7065 8.10666C24.5732 7.61332 23.3332 7.33332 21.9998 7.33332C21.1065 7.33332 20.2532 7.46666 19.4398 7.70666C20.2132 8.43999 20.6665 9.46666 20.6665 10.5733V11.3333H27.3332V10.5733C27.3332 9.49332 26.6665 8.53332 25.7065 8.10666ZM5.99984 5.99999C7.4665 5.99999 8.6665 4.79999 8.6665 3.33332C8.6665 1.86666 7.4665 0.666656 5.99984 0.666656C4.53317 0.666656 3.33317 1.86666 3.33317 3.33332C3.33317 4.79999 4.53317 5.99999 5.99984 5.99999ZM8.55984 7.70666C7.7465 7.46666 6.89317 7.33332 5.99984 7.33332C4.6665 7.33332 3.4265 7.61332 2.29317 8.10666C1.33317 8.53332 0.666504 9.49332 0.666504 10.5733V11.3333H7.33317V10.5733C7.33317 9.46666 7.7865 8.43999 8.55984 7.70666ZM11.3332 3.33332C11.3332 1.86666 12.5332 0.666656 13.9998 0.666656C15.4665 0.666656 16.6665 1.86666 16.6665 3.33332C16.6665 4.79999 15.4665 5.99999 13.9998 5.99999C12.5332 5.99999 11.3332 4.79999 11.3332 3.33332ZM19.3332 11.3333H8.6665V10.5733C8.6665 9.49332 9.33317 8.53332 10.2932 8.10666C11.4265 7.61332 12.6665 7.33332 13.9998 7.33332C15.3332 7.33332 16.5732 7.61332 17.7065 8.10666C18.6665 8.53332 19.3332 9.49332 19.3332 10.5733V11.3333Z" fill="white"/>
</svg>
