<svg width="19" height="17" viewBox="0 0 19 17" fill="none" xmlns="http://www.w3.org/2000/svg">
<path d="M11.0835 14.0417C14.0689 14.0417 15.562 14.0417 16.489 13.1138C17.4168 12.1868 17.4168 10.6937 17.4168 7.70833C17.4168 4.72296 17.4168 3.22987 16.489 2.30283C15.562 1.375 14.0689 1.375 11.0835 1.375H7.91683C4.93145 1.375 3.43837 1.375 2.51133 2.30283C1.5835 3.22987 1.5835 4.72296 1.5835 7.70833C1.5835 10.6937 1.5835 12.1868 2.51133 13.1138C3.02829 13.6316 3.721 13.8604 4.75016 13.9609" stroke="white" stroke-width="1.58333" stroke-linecap="round" stroke-linejoin="round"/>
<path d="M11.0836 14.0417C10.1051 14.0417 9.0269 14.4375 8.04285 14.9481C6.4611 15.7691 5.67023 16.1799 5.28073 15.9179C4.89123 15.6567 4.96485 14.8452 5.1129 13.2231L5.14615 12.8542" stroke="white" stroke-width="1.58333" stroke-linecap="round"/>
</svg>
