<svg width="23" height="16" viewBox="0 0 23 16" fill="none" xmlns="http://www.w3.org/2000/svg">
<path d="M15.5179 10.6427C15.3048 10.6427 15.1004 10.7274 14.9497 10.8781C14.799 11.0288 14.7144 11.2332 14.7144 11.4463C14.7144 11.6594 14.799 11.8638 14.9497 12.0145C15.1004 12.1652 15.3048 12.2498 15.5179 12.2498H18.1965C18.4096 12.2498 18.614 12.1652 18.7647 12.0145C18.9154 11.8638 19.0001 11.6594 19.0001 11.4463C19.0001 11.2332 18.9154 11.0288 18.7647 10.8781C18.614 10.7274 18.4096 10.6427 18.1965 10.6427H15.5179Z" fill="#FDFDFD"/>
<path d="M3.241 0.464294C2.5898 0.464294 1.96527 0.722983 1.5048 1.18345C1.04433 1.64392 0.785645 2.26845 0.785645 2.91965V13.1875C0.785645 13.8387 1.04433 14.4632 1.5048 14.9237C1.96527 15.3842 2.5898 15.6429 3.241 15.6429H19.7589C20.4101 15.6429 21.0346 15.3842 21.4951 14.9237C21.9555 14.4632 22.2142 13.8387 22.2142 13.1875V2.91965C22.2142 2.26845 21.9555 1.64392 21.4951 1.18345C21.0346 0.722983 20.4101 0.464294 19.7589 0.464294H3.241ZM2.12493 13.1875V6.26787H20.8749V13.1875C20.8749 13.8036 20.3749 14.3036 19.7589 14.3036H3.241C2.62493 14.3036 2.12493 13.8036 2.12493 13.1875ZM2.12493 4.92858V2.91965C2.12493 2.30358 2.62493 1.80358 3.241 1.80358H19.7589C20.3749 1.80358 20.8749 2.30358 20.8749 2.91965V4.92858H2.12493Z" fill="#FDFDFD"/>
</svg>
