<svg width="16" height="31" viewBox="0 0 16 31" fill="none" xmlns="http://www.w3.org/2000/svg">
<path d="M2.61145 30.3752C2.92892 30.3763 3.24259 30.3062 3.52942 30.1702C3.81625 30.0341 4.06895 29.8355 4.26895 29.589L14.5327 16.839C14.8453 16.4587 15.0161 15.9818 15.0161 15.4896C15.0161 14.9974 14.8453 14.5205 14.5327 14.1402L3.9077 1.39022C3.54701 0.956259 3.0287 0.683357 2.46679 0.631551C1.90489 0.579744 1.34542 0.753275 0.911455 1.11397C0.477494 1.47466 0.204594 1.99298 0.152786 2.55488C0.10098 3.11679 0.27451 3.67626 0.635204 4.11022L10.134 15.5002L0.953956 26.8902C0.694104 27.2021 0.52904 27.582 0.478296 27.9848C0.427552 28.3875 0.493251 28.7964 0.66762 29.1631C0.841988 29.5297 1.11773 29.8387 1.46221 30.0535C1.8067 30.2683 2.20551 30.38 2.61145 30.3752Z" fill="#77787E"/>
</svg>
