<svg width="16" height="31" viewBox="0 0 16 31" fill="none" xmlns="http://www.w3.org/2000/svg">
<path d="M13.3885 30.3752C13.0711 30.3763 12.7574 30.3062 12.4706 30.1702C12.1838 30.0341 11.9311 29.8355 11.731 29.589L1.4673 16.839C1.15475 16.4587 0.983887 15.9818 0.983887 15.4896C0.983887 14.9974 1.15475 14.5205 1.4673 14.1402L12.0923 1.39022C12.453 0.956259 12.9713 0.683357 13.5332 0.631551C14.0951 0.579744 14.6546 0.753275 15.0885 1.11397C15.5225 1.47466 15.7954 1.99298 15.8472 2.55488C15.899 3.11679 15.7255 3.67626 15.3648 4.11022L5.86605 15.5002L15.046 26.8902C15.3059 27.2021 15.471 27.582 15.5217 27.9848C15.5725 28.3875 15.5068 28.7964 15.3324 29.1631C15.158 29.5297 14.8823 29.8387 14.5378 30.0535C14.1933 30.2683 13.7945 30.38 13.3885 30.3752Z" fill="#77787E"/>
</svg>
