<svg width="27" height="28" viewBox="0 0 27 28" fill="none" xmlns="http://www.w3.org/2000/svg">
<path fill-rule="evenodd" clip-rule="evenodd" d="M26.2726 14.0001C26.2726 21.2295 20.4112 27.091 13.1817 27.091C5.95228 27.091 0.0908203 21.2295 0.0908203 14.0001C0.0908203 6.77063 5.95228 0.90918 13.1817 0.90918C20.4112 0.90918 26.2726 6.77063 26.2726 14.0001ZM13.6508 10.5735C12.3777 11.1026 9.83264 12.199 6.01664 13.8615C5.397 14.1081 5.07191 14.3492 5.04246 14.5848C4.99228 14.9841 5.49191 15.1412 6.17046 15.3539C6.26318 15.3834 6.35918 15.4128 6.45737 15.4455C7.12609 15.6626 8.025 15.9168 8.49191 15.9266C8.91628 15.9354 9.38973 15.7608 9.91228 15.403C13.4774 12.9954 15.3177 11.779 15.4334 11.7528C15.5152 11.7343 15.6286 11.7103 15.705 11.779C15.7814 11.8466 15.7737 11.9754 15.7661 12.0103C15.7159 12.2208 13.7588 14.0415 12.7443 14.9841C12.4279 15.2775 12.2043 15.4859 12.1585 15.5339C12.0559 15.6397 11.9512 15.7412 11.8508 15.8383C11.229 16.4361 10.7643 16.8855 11.877 17.6186C12.4115 17.971 12.8392 18.2623 13.2657 18.5525C13.7315 18.8699 14.1963 19.1863 14.7985 19.5812C14.9512 19.6815 15.0974 19.7852 15.2403 19.8866C15.7825 20.2739 16.2701 20.6208 16.8723 20.5663C17.2214 20.5335 17.5835 20.2052 17.7668 19.2245C18.1999 16.9052 19.053 11.8826 19.2505 9.81209C19.2625 9.64018 19.2552 9.46746 19.2286 9.29718C19.2128 9.15965 19.1458 9.0331 19.041 8.94263C18.885 8.815 18.6428 8.78773 18.5337 8.78991C18.0417 8.79863 17.2868 9.06154 13.6508 10.5735Z" fill="url(#paint0_linear_204_150)"/>
<defs>
<linearGradient id="paint0_linear_204_150" x1="13.1817" y1="-9.87157" x2="13.1817" y2="27.091" gradientUnits="userSpaceOnUse">
<stop stop-color="#FFB906"/>
<stop offset="1" stop-color="#FF7E06"/>
</linearGradient>
</defs>
</svg>
